<svg width="176" height="50" viewBox="0 0 176 50" fill="none" xmlns="http://www.w3.org/2000/svg">
<g clip-path="url(#clip0_83_736)">
<path fill-rule="evenodd" clip-rule="evenodd" d="M0.501828 15.8046C0.501828 23.792 7.09494 30.2926 15.198 30.2926C23.3029 30.2926 29.8942 23.792 29.8942 15.8046C29.8942 7.81728 23.3029 1.31665 15.198 1.31665C7.09494 1.31665 0.501828 7.81728 0.501828 15.8046ZM2.71487 15.8029C2.71487 9.01591 8.3164 3.49439 15.2017 3.49439C22.0888 3.49439 27.6921 9.01762 27.6921 15.8029C27.6921 22.5898 22.0888 28.1131 15.2017 28.1131C8.3164 28.1131 2.71487 22.5916 2.71487 15.8029ZM18.2217 43.0178L23.9711 48.6833L30.4389 42.3079L28.9916 40.8828L23.9694 45.8351L18.2217 40.1712L12.4688 45.8351L6.71771 40.1712L0.244629 46.5484L1.69024 47.9717L6.71771 43.0178L12.4688 48.6833L18.2217 43.0178ZM49.3041 30.0576H47.0992V28.0154H49.3041V30.0576ZM49.3041 41.3887H47.0992V31.5307H49.3041V41.3887ZM52.5007 41.3887H54.5343V35.3906C54.5343 33.9003 55.4057 33.2111 56.667 33.2111C57.9282 33.2111 58.7998 33.9003 58.7998 35.3906V41.3887H60.8351V35.3529C60.8351 32.3142 58.5876 31.2632 56.86 31.2632C55.8163 31.2632 54.8265 31.817 54.536 32.3897V31.5307H52.5007V41.3887ZM63.4081 38.237H65.5025C65.6573 39.211 66.6071 39.65 67.6926 39.65C68.5833 39.65 69.34 39.4202 69.34 38.6177C69.34 37.9489 68.7399 37.7398 68.0806 37.5855L66.1792 37.1071C64.8622 36.7829 63.6412 36.0577 63.6412 34.1645C63.6412 32.2182 65.2294 31.2614 67.2665 31.2614C69.4166 31.2614 70.9092 32.2182 71.104 34.4148H68.9712C68.8164 33.5541 68.0614 33.1923 67.129 33.1923C66.508 33.1923 65.6938 33.4203 65.6938 34.2056C65.6938 34.7956 66.2765 34.9893 66.8177 35.1231L68.6599 35.5809C70.483 36.0405 71.3928 36.8034 71.3928 38.676C71.3737 40.6258 69.8428 41.5808 67.6717 41.5808C65.3668 41.5808 63.5245 40.492 63.4081 38.237ZM77.7545 39.4579C76.9595 39.4579 76.8238 39.2487 76.8238 38.5233V33.4203H79.2872V31.5307H76.8238V29.2945H74.7885V31.5307H73.3742V33.4203H74.7885V39.0378C74.7885 40.5862 75.5052 41.3887 77.1717 41.3887H79.2872V39.4579H77.7545ZM84.3118 30.0576H82.1088V28.0154H84.3118V30.0576ZM84.3118 41.3887H82.1088V31.5307H84.3118V41.3887ZM91.2747 39.4579C90.4798 39.4579 90.3458 39.2487 90.3458 38.5233V33.4203H92.8056V31.5307H90.3458V29.2945H88.3087V31.5307H86.8926V33.4203H88.3087V39.0378C88.3087 40.5862 89.0254 41.3887 90.6937 41.3887H92.8056V39.4579H91.2747ZM97.6104 37.4533C97.6104 38.9436 98.4836 39.6311 99.6857 39.6311C100.888 39.6311 101.761 38.9418 101.761 37.4533V31.5307H103.795V41.3887H101.761V40.4525C101.469 41.0269 100.481 41.5808 99.4352 41.5808C97.7113 41.5808 95.5785 40.3959 95.5785 37.4929V31.5307H97.612V37.4533H97.6104ZM110.595 39.4579C109.8 39.4579 109.662 39.2487 109.662 38.5233V33.4203H112.126V31.5307H109.662V29.2945H107.629V31.5307H106.213V33.4203H107.629V39.0378C107.629 40.5862 108.345 41.3887 110.014 41.3887H112.126V39.4579H110.595ZM117.494 38.5233C117.494 39.2487 117.631 39.4579 118.427 39.4579H119.957V41.3887H117.842C116.177 41.3887 115.46 40.5862 115.46 39.0378V33.4203H114.045V31.5307H115.46V29.2945H117.494V31.5307H119.957V33.4203H117.494V38.5233ZM58.5945 8.30256H56.5192L52.8938 15.6966L49.2703 8.30256H47.1966V21.6776H49.2494V12.3923L52.0414 18.0853H53.7479L56.5383 12.3923V21.6776H58.5945V8.30256ZM67.8909 18.5431H69.9662C69.6183 21.1615 67.4664 21.8697 65.8574 21.8697C64.1125 21.8697 61.6893 21.0277 61.6893 17.78V15.64C61.6893 12.3923 64.1107 11.5503 65.8574 11.5503C67.6005 11.5503 70.0237 12.3923 70.0237 15.64V17.4148H63.7246V17.7406C63.7246 19.2307 64.598 19.9371 65.8574 19.9371C66.8629 19.9371 67.6213 19.4811 67.8909 18.5431ZM63.7246 15.6194V15.64H67.9884V15.6194C67.9692 14.1859 67.0976 13.4794 65.8574 13.4794C64.5962 13.4811 63.7246 14.1876 63.7246 15.6194ZM76.6289 19.7469C75.8358 19.7469 75.6983 19.536 75.6983 18.8106V13.7092H78.1599V11.8178H75.6983V9.58347H73.663V11.8178H72.2487V13.7092H73.663V19.3268C73.663 20.8734 74.3797 21.676 76.0462 21.676H78.1599V19.7469H76.6289ZM86.9326 18.5431H89.0081C88.6601 21.1615 86.5083 21.8697 84.8992 21.8697C83.1543 21.8697 80.731 21.0277 80.731 17.78V15.64C80.731 12.3923 83.1525 11.5503 84.8992 11.5503C86.6457 11.5503 89.0673 12.3923 89.0673 15.64V17.4148H82.7645V17.7406C82.7645 19.2307 83.6379 19.9371 84.8974 19.9371C85.9046 19.9371 86.663 19.4811 86.9326 18.5431ZM82.7645 15.6194V15.64H87.0302V15.6194C87.0109 14.1859 86.1393 13.4794 84.8992 13.4794C83.6361 13.4811 82.7645 14.1876 82.7645 15.6194ZM96.0378 11.5503C94.2929 11.5503 91.8697 12.3923 91.8697 15.64V17.78C91.8697 21.0277 94.2929 21.8697 96.0378 21.8697C97.7844 21.8697 100.206 21.0277 100.206 17.78V15.64C100.206 12.3923 97.7826 11.5503 96.0378 11.5503ZM96.0395 13.4794C97.2989 13.4794 98.1723 14.1859 98.1723 15.676V17.7406C98.1723 19.2307 97.3007 19.9371 96.0395 19.9371C94.7818 19.9371 93.9085 19.2307 93.9085 17.7406V15.676C93.9085 14.1859 94.7818 13.4794 96.0395 13.4794ZM107.237 13.5943C105.98 13.5943 105.106 14.2819 105.106 15.7703V21.676H103.073V11.8178H105.106V12.7729C105.395 12.1985 106.387 11.6446 107.432 11.6446H108.208V13.5943H107.237ZM114.467 11.5503C112.721 11.5503 110.299 12.3923 110.299 15.64V17.78C110.299 21.0277 112.722 21.8697 114.467 21.8697C116.21 21.8697 118.635 21.0277 118.635 17.78V15.64C118.635 12.3923 116.21 11.5503 114.467 11.5503ZM114.465 13.4794C115.723 13.4794 116.596 14.1859 116.596 15.676V17.7406C116.596 19.2307 115.723 19.9371 114.465 19.9371C113.206 19.9371 112.333 19.2307 112.333 17.7406V15.676C112.333 14.1859 113.204 13.4794 114.465 13.4794ZM123.609 18.8106C123.609 19.536 123.746 19.7469 124.541 19.7469H124.853V21.676H123.962C122.294 21.676 121.577 20.8734 121.577 19.3268V8.30256H123.61L123.609 18.8106ZM131.534 11.5503C129.788 11.5503 127.366 12.3923 127.366 15.64V17.78C127.366 21.0277 129.79 21.8697 131.534 21.8697C133.279 21.8697 135.703 21.0277 135.703 17.78V15.64C135.703 12.3923 133.279 11.5503 131.534 11.5503ZM131.536 13.4794C132.796 13.4794 133.669 14.1859 133.669 15.676V17.7406C133.669 19.2307 132.797 19.9371 131.536 19.9371C130.278 19.9371 129.405 19.2307 129.405 17.7406V15.676C129.405 14.1859 130.278 13.4794 131.536 13.4794ZM152.223 10.3465H150.02V8.30256H152.223V10.3465ZM152.223 21.676H150.02V11.8178H152.223V21.676ZM156.898 18.5241H154.805C154.923 20.7791 156.76 21.8697 159.069 21.8697C161.238 21.8697 162.769 20.9129 162.792 18.965C162.792 17.0907 161.878 16.3276 160.055 15.8681L158.217 15.4085C157.674 15.2765 157.093 15.0861 157.093 14.4928C157.093 13.7092 157.907 13.4794 158.524 13.4794C159.457 13.4794 160.212 13.8412 160.367 14.7003H162.499C162.306 12.5037 160.812 11.5486 158.66 11.5486C156.626 11.5486 155.037 12.5037 155.037 14.4534C155.037 16.3465 156.256 17.0718 157.576 17.3958L159.474 17.8744C160.134 18.0286 160.735 18.2396 160.735 18.9067C160.735 19.7091 159.981 19.9389 159.09 19.9389C158.004 19.9389 157.053 19.4999 156.898 18.5241ZM167.46 15.8303L171.199 11.8178H173.662L170.056 15.676L174.206 21.676H171.839L168.7 17.1285L167.46 18.4658V21.676H165.424V8.30085H167.46V15.8303ZM144.653 20.167V21.2575C144.653 22.746 143.78 23.4542 142.523 23.4542C141.457 23.4542 140.662 22.9397 140.448 21.8697H138.392C138.665 24.639 140.873 25.3832 142.522 25.3832C144.265 25.3832 146.69 24.543 146.69 21.2936V11.8178H144.653V12.6786C144.364 12.1042 143.374 11.5503 142.327 11.5503C140.605 11.5503 138.355 12.5997 138.355 15.64V17.2056C138.355 20.244 140.603 21.2936 142.327 21.2936C143.372 21.2936 144.364 20.7414 144.653 20.167ZM142.522 19.3455C141.262 19.3455 140.389 18.6579 140.389 17.1678V15.676C140.389 14.1876 141.261 13.5 142.522 13.5C143.78 13.5 144.653 14.1859 144.653 15.676V17.1678C144.653 18.6579 143.78 19.3455 142.522 19.3455Z" fill="white"/>
</g>
<defs>
<clipPath id="clip0_83_736">
<rect width="174.767" height="49" fill="white" transform="translate(0.244629 0.5)"/>
</clipPath>
</defs>
</svg>
