<svg width="137" height="50" viewBox="0 0 137 50" fill="none" xmlns="http://www.w3.org/2000/svg">
<path d="M7.23389 13.2247C7.40454 12.9755 7.57942 12.7263 7.7543 12.4863C11.6008 7.26276 17.7942 3.875 24.7793 3.875C31.314 3.875 37.1535 6.83866 41.0304 11.4979C41.1529 11.6466 41.2754 11.7995 41.3928 11.9482C36.5738 23.2993 28.7787 30.2928 25.826 30.0664C17.0626 28.0945 14.5721 17.3509 7.2643 13.2543L7.23389 13.2247Z" fill="white"/>
<path d="M43.6665 15.5234C45.1002 18.373 45.9045 21.5901 45.9045 24.9999C45.9045 36.6661 36.4458 46.1248 24.7795 46.1248C13.1133 46.1248 3.65039 36.6661 3.65039 24.9999C3.65039 23.1294 3.89539 21.3198 4.34991 19.593C12.9249 23.8981 19.4977 29.4437 25.0465 29.5586C32.5646 29.7145 38.1405 22.7226 43.6665 15.5234Z" fill="white"/>
<path d="M10.0144 24.7371C11.2952 25.9655 11.4304 26.289 13.2493 27.5081C15.0631 28.723 15.2862 28.8286 17.2791 29.6067C20.0561 30.719 21.9083 30.6533 24.793 30.8215C22.6694 32.2008 20.0878 32.9667 17.8646 33.5968C18.1203 33.9266 18.4447 34.0485 18.7035 34.1392C20.6171 34.8292 22.2682 34.4754 23.4506 34.0167C25.2644 33.2994 25.9682 32.5653 27.9003 31.6605C30.3164 30.4958 32.0027 29.9831 34.5745 29.9818C34.6053 29.2237 33.7776 29.0207 33.1473 28.9759C32.3168 28.9235 31.795 29.0086 30.9645 29.061C30.2169 29.1429 29.9684 29.1729 29.3298 29.017C29.7496 28.9782 30.0293 28.8641 31.0473 28.3479C34.3448 26.8522 37.3304 23.7078 39.6147 20.8737C41.207 18.7819 42.1813 17.4578 43.6614 15.5302C43.0236 14.2604 42.2615 13.065 41.3905 11.9583C41.3221 11.9904 40.8862 12.1095 40.5009 12.3029C40.038 12.5344 39.417 12.6704 38.6786 13.3167C35.2705 16.6896 34.3208 21.5517 31.86 24.9872C30.9552 26.2198 29.7843 27.4963 28.6776 28.1823C27.5674 28.8641 26.5317 29.1784 25.2771 29.0474C22.2171 28.4872 19.9772 26.5949 17.8553 24.5014C16.0454 22.6459 14.8592 20.5404 13.1564 18.4871C11.3984 16.4198 9.49555 14.5058 7.26453 13.2551L7.23496 13.2263C5.94237 15.1483 4.95899 17.295 4.35156 19.5947C4.36086 19.598 5.30791 19.9647 6.27777 20.7081C7.93659 22.1098 9.02355 23.7802 10.0144 24.7371Z" fill="#1C1E1F"/>
<path d="M60.0483 36.6822V14.3745H71.6411C73.2868 14.3745 74.6225 15.7093 74.6225 17.3551V36.6822H69.7579V19.5854C69.7579 19.1647 69.4285 18.836 69.0263 18.836H65.6436C65.2415 18.836 64.912 19.1655 64.912 19.5854V36.6822H60.0483Z" fill="white"/>
<path d="M108.597 22.5482V19.5863C108.597 19.1655 108.268 18.8369 107.848 18.8369H104.41C103.99 18.8369 103.642 19.1664 103.642 19.5863V22.5482C103.642 22.969 103.99 23.2976 104.41 23.2976H107.848C108.268 23.2976 108.597 22.969 108.597 22.5482ZM98.6865 36.6822V17.3551C98.6865 15.7093 100.058 14.3745 101.74 14.3745H110.571C112.254 14.3745 113.625 15.7093 113.625 17.3551V36.6822H108.596V28.5085C108.596 28.0878 108.267 27.7591 107.847 27.7591H104.409C103.989 27.7591 103.641 28.0886 103.641 28.5085V36.6822H98.6865Z" fill="white"/>
<path d="M128.197 22.5482V19.5863C128.197 19.1655 127.85 18.8369 127.429 18.8369H124.028C123.607 18.8369 123.279 19.1664 123.279 19.5863V22.5482C123.279 22.969 123.607 23.2976 124.028 23.2976H127.429C127.85 23.2976 128.197 22.969 128.197 22.5482ZM118.359 36.6822V17.3551C118.359 15.7093 119.713 14.3745 121.376 14.3745H130.08C131.763 14.3745 133.115 15.7093 133.115 17.3551V36.6822H128.196V28.5085C128.196 28.0878 127.848 27.7591 127.428 27.7591H124.026C123.606 27.7591 123.277 28.0886 123.277 28.5085V36.6822H118.359Z" fill="white"/>
<path d="M91.3037 14.3745H82.8368C81.2097 14.3745 79.8926 15.7093 79.8926 17.3365V33.6653C79.8926 35.2925 81.2088 36.6273 82.836 36.6273H91.3037C92.9308 36.6273 94.2479 35.2925 94.2479 33.6653V17.3365C94.2479 15.7093 92.9308 14.3745 91.3037 14.3745ZM89.4552 31.435C89.4552 31.8371 89.1265 32.1666 88.7244 32.1666H85.4144C85.0122 32.1658 84.6836 31.8371 84.6836 31.435V19.5677C84.6836 19.1655 85.0122 18.8183 85.4144 18.8183H88.7244C89.1265 18.8183 89.4552 19.1655 89.4552 19.5677V31.435Z" fill="white"/>
</svg>
