<svg width="120" height="22" viewBox="0 0 120 22" fill="none" xmlns="http://www.w3.org/2000/svg">
<path d="M15.2717 11.7839C15.2717 14.7982 10.2766 12.3375 10.2766 15.3518C10.2766 16.9305 13.1397 18.0369 15.2717 18.5474M15.2717 11.7839C15.2717 10.7136 13.6884 10.0446 12.4173 9.64319M15.2717 11.7839V6.78885M15.2717 11.7839V18.5474M1 1.0802V9.64319C1 9.64319 2.90214 9.34285 5.28149 9.19215M5.28149 9.19215V2.50736M5.28149 9.19215C6.4139 9.12043 8.05314 9.14757 9.24812 9.19215M9.24812 9.19215V3.93452M9.24812 9.19215C10.5698 9.24146 11.4149 9.32661 12.4173 9.64319M12.4173 9.64319V5.36169M18.1259 18.884V11.0703M18.1259 18.884C19.0664 18.9235 20.0304 18.928 20.9803 18.9085M18.1259 18.884C16.595 18.8198 16.516 18.8453 15.2717 18.5474M20.9803 18.9085V13.9247M20.9803 18.9085C21.9604 18.8885 22.9256 18.843 23.8346 18.7842M23.8346 18.7842V14.6382M23.8346 18.7842C24.8817 18.7166 25.8542 18.6314 26.6889 18.5474M29.5433 16.0654V18.2061C29.5433 18.2061 28.4081 18.3743 26.6889 18.5474M26.6889 18.5474V15.3518" stroke="white" stroke-width="1.42716" stroke-linecap="round"/>
<path d="M45.487 17H47.507V4.76H47.887L52.987 17H56.887V3H54.867V15.24H54.487L49.327 3H45.487V17ZM64.968 17.26C68.048 17.26 70.388 15.02 70.388 11.86C70.388 8.72 68.048 6.46 64.968 6.46C61.828 6.46 59.548 8.72 59.548 11.86C59.548 15.02 61.828 17.26 64.968 17.26ZM61.588 11.86C61.588 9.76 63.028 8.28 64.968 8.28C66.908 8.28 68.348 9.76 68.348 11.86C68.348 14.02 66.908 15.44 64.968 15.44C63.028 15.44 61.588 14.02 61.588 11.86ZM72.755 17H74.755V11.82C74.755 10.16 75.735 8.68 77.815 8.68H78.495V6.54C76.415 6.54 75.455 7.9 75.155 8.9H74.735V6.72H72.755V17ZM84.4527 17.26C86.1927 17.26 87.4127 16.4 87.8127 15.16H88.2327V17H90.2127V2H88.2327V8.56H87.8327C87.4127 7.4 86.1927 6.46 84.4527 6.46C81.7327 6.46 79.7527 8.78 79.7527 11.88C79.7527 14.96 81.7127 17.26 84.4527 17.26ZM81.7927 11.88C81.7927 9.74 83.1927 8.28 85.0327 8.28C86.8127 8.28 88.3127 9.6 88.3127 11.88C88.3127 13.88 86.9927 15.44 85.0727 15.44C83.1927 15.44 81.7927 14.06 81.7927 11.88ZM93.0341 17H95.0341V2H93.0341V17ZM100.583 17H101.663L100.163 20.94V21.2H102.283L107.643 6.98V6.72H105.563L102.443 15.24H102.023L99.003 6.72H96.963V6.98L100.583 17ZM113.311 17.26C115.931 17.26 117.611 16 117.611 14.1C117.611 12.4 116.471 11.48 114.711 11.1L112.971 10.72C112.011 10.52 111.511 10.14 111.511 9.46C111.511 8.74 112.251 8.16 113.511 8.16C114.731 8.16 115.631 8.86 115.811 9.9L117.591 9.42C117.191 7.6 115.611 6.46 113.511 6.46C111.071 6.46 109.591 7.8 109.591 9.46C109.591 11.32 110.951 12.08 112.431 12.4L114.211 12.78C115.211 13 115.671 13.42 115.671 14.1C115.671 14.9 114.891 15.52 113.371 15.52C112.111 15.52 111.051 14.92 110.771 13.66L108.951 14.14C109.391 16 110.931 17.26 113.311 17.26Z" fill="white"/>
</svg>
