<svg width="58" height="58" viewBox="0 0 58 58" fill="none" xmlns="http://www.w3.org/2000/svg">
<rect width="58" height="58" rx="15" fill="#1E1E1E"/>
<path d="M29.4 31.8C29.4 35.6862 22.96 32.5138 22.96 36.4C22.96 38.4354 26.6514 39.8619 29.4 40.5199M29.4 31.8C29.4 30.42 27.3588 29.5575 25.72 29.04M29.4 31.8V25.36M29.4 31.8V40.5199M11 18V29.04C11 29.04 13.4524 28.6528 16.52 28.4585M16.52 28.4585V19.84M16.52 28.4585C17.98 28.366 20.0934 28.401 21.6341 28.4585M21.6341 28.4585V21.68M21.6341 28.4585C23.3381 28.5221 24.4276 28.6319 25.72 29.04M25.72 29.04V23.52M33.08 40.954V30.88M33.08 40.954C34.2925 41.0049 35.5353 41.0106 36.76 40.9856M33.08 40.954C31.1062 40.8711 31.0043 40.904 29.4 40.5199M36.76 40.9856V34.56M36.76 40.9856C38.0237 40.9597 39.2681 40.901 40.44 40.8253M40.44 40.8253V35.48M40.44 40.8253C41.79 40.7381 43.0438 40.6283 44.12 40.5199M47.8 37.32V40.08C47.8 40.08 46.3365 40.2968 44.12 40.5199M44.12 40.5199V36.4" stroke="white" stroke-width="1.84" stroke-linecap="round"/>
</svg>
