<svg width="15" height="18" viewBox="0 0 15 18" fill="none" xmlns="http://www.w3.org/2000/svg">
<path d="M12.1081 16.9298C11.1694 17.8397 10.1446 17.696 9.15799 17.265C8.11395 16.8244 7.15612 16.8052 6.05461 17.265C4.67533 17.8589 3.94738 17.6865 3.12364 16.9298C-1.55058 12.1119 -0.860942 4.77487 4.44545 4.50668C5.73852 4.57373 6.63889 5.21547 7.39558 5.27294C8.52582 5.04306 9.60817 4.38216 10.815 4.46836C12.2614 4.5833 13.3533 5.158 14.0717 6.19246C11.0832 7.98361 11.792 11.9203 14.5314 13.0218C13.9855 14.4586 13.2767 15.8857 12.0985 16.9393L12.1081 16.9298ZM7.29979 4.44921C7.15612 2.31324 8.88979 0.550828 10.8821 0.378418C11.1599 2.84963 8.64076 4.68867 7.29979 4.44921Z" fill="#1C1E1F"/>
</svg>
