<svg width="50" height="50" viewBox="0 0 50 50" fill="none" xmlns="http://www.w3.org/2000/svg">
<path d="M41.4062 18.75H29.6875C28.0299 18.75 26.4402 18.0915 25.2681 16.9194C24.096 15.7473 23.4375 14.1576 23.4375 12.5C23.4375 10.8424 24.096 9.25266 25.2681 8.08056C26.4402 6.90846 28.0299 6.24998 29.6875 6.24998H29.8187C30.5146 5.27795 31.4334 4.48691 32.498 3.94318C33.5626 3.39945 34.7421 3.11887 35.9375 3.12498C37.5138 3.12483 39.053 3.60322 40.3514 4.49687C41.6499 5.39052 42.6465 6.65731 43.2094 8.12966C44.2828 8.49643 45.214 9.19092 45.8717 10.1152C46.5294 11.0395 46.8803 12.1469 46.875 13.2812C46.8733 14.7311 46.2966 16.1212 45.2714 17.1464C44.2462 18.1716 42.8561 18.7483 41.4062 18.75ZM29.6875 9.37498C28.8587 9.37498 28.0638 9.70422 27.4778 10.2903C26.8917 10.8763 26.5625 11.6712 26.5625 12.5C26.5625 13.3288 26.8917 14.1236 27.4778 14.7097C28.0638 15.2957 28.8587 15.625 29.6875 15.625H41.4062C42.0276 15.6241 42.6233 15.377 43.0626 14.9376C43.502 14.4982 43.7492 13.9026 43.75 13.2812C43.751 12.721 43.5494 12.1794 43.1824 11.7561C42.8154 11.3328 42.3078 11.0565 41.7531 10.9781L40.7203 10.8234L40.4672 9.80935C40.2514 8.89563 39.7625 8.06931 39.0654 7.44044C38.3683 6.81157 37.4961 6.40999 36.5651 6.28917C35.634 6.16836 34.6883 6.33405 33.8538 6.76418C33.0192 7.1943 32.3356 7.86845 31.8937 8.69685L31.4281 9.37498H29.6875ZM20.3125 43.75V38.8875C23.0966 38.5643 25.689 37.3074 27.6672 35.3219C27.9601 35.0288 28.1247 34.6315 28.1247 34.2172C28.1247 33.8028 27.9601 33.4055 27.6672 33.1125L21.0375 26.4844L25 22.5218L22.7906 20.3125L18.8281 24.275L12.2 17.6453C11.907 17.3524 11.5096 17.1878 11.0953 17.1878C10.681 17.1878 10.2836 17.3524 9.99062 17.6453C7.64676 19.9894 6.33001 23.1686 6.33001 26.4836C6.33001 29.7985 7.64676 32.9777 9.99062 35.3219C10.2437 35.5765 10.5094 35.8109 10.7797 36.0406L6.925 43.75H3.125V46.875H46.875V43.75H20.3125ZM17.1875 43.75H10.4187L13.4219 37.7453C14.6092 38.317 15.8806 38.6947 17.1875 38.864V43.75ZM12.2 33.1125C10.6335 31.5456 9.6722 29.4748 9.48631 27.267C9.30042 25.0591 9.90196 22.8568 11.1844 21.05L24.2625 34.1265C22.456 35.4095 20.2537 36.0114 18.0458 35.8258C15.8379 35.6402 13.7669 34.679 12.2 33.1125Z" fill="#5ABB7A"/>
</svg>
