<svg width="50" height="50" viewBox="0 0 50 50" fill="none" xmlns="http://www.w3.org/2000/svg">
<path d="M24.9998 41.6667C34.1665 41.6667 41.6665 34.1667 41.6665 25C41.6665 15.8334 34.1665 8.33335 24.9998 8.33335C15.8332 8.33335 8.33317 15.8334 8.33317 25C8.33317 34.1667 15.8332 41.6667 24.9998 41.6667ZM24.9998 4.16669C36.4582 4.16669 45.8332 13.5417 45.8332 25C45.8332 36.4584 36.4582 45.8334 24.9998 45.8334C13.5415 45.8334 4.1665 36.4584 4.1665 25C4.1665 13.5417 13.5415 4.16669 24.9998 4.16669ZM31.8748 33.75L29.1665 35.4167L22.9165 24.5834V14.5834H26.0415V23.75L31.8748 33.75Z" fill="#5ABB7A"/>
</svg>
