<svg width="14" height="16" viewBox="0 0 14 16" fill="none" xmlns="http://www.w3.org/2000/svg">
<path d="M13.527 8.81129L11.0776 10.1976L8.88071 8.01441L11.0951 5.81376L13.527 7.19003C13.6705 7.27119 13.7899 7.389 13.873 7.53142C13.9561 7.67385 13.9999 7.83577 13.9999 8.00066C13.9999 8.16554 13.9561 8.32747 13.873 8.4699C13.7899 8.61232 13.6705 8.73013 13.527 8.81129ZM0.601252 1.07747C0.55487 1.19007 0.531085 1.31069 0.531251 1.43247V14.5682C0.531251 14.7039 0.559376 14.8301 0.608752 14.9432L7.5807 8.01378L0.601252 1.07747ZM8.2307 7.36815L10.267 5.34438L1.92189 0.621836C1.74302 0.519045 1.53469 0.479626 1.33063 0.50996L8.2307 7.36815ZM8.2307 8.66004L1.35563 15.4932C1.54189 15.5157 1.73814 15.4832 1.92189 15.3789L10.2495 10.6663L8.2307 8.66004Z" fill="#1C1E1F"/>
</svg>
